<svg id="visual" viewBox="0 0 960 540" width="960" height="540" xmlns="http://www.w3.org/2000/svg" xmlns:xlink="http://www.w3.org/1999/xlink" version="1.1"><rect x="0" y="0" width="960" height="540" fill="#001220"></rect><path d="M0 294L22.8 285.5C45.7 277 91.3 260 137 256.5C182.7 253 228.3 263 274 274.3C319.7 285.7 365.3 298.3 411.2 290.8C457 283.3 503 255.7 548.8 240C594.7 224.3 640.3 220.7 686 229.3C731.7 238 777.3 259 823 276.3C868.7 293.7 914.3 307.3 937.2 314.2L960 321L960 0L937.2 0C914.3 0 868.7 0 823 0C777.3 0 731.7 0 686 0C640.3 0 594.7 0 548.8 0C503 0 457 0 411.2 0C365.3 0 319.7 0 274 0C228.3 0 182.7 0 137 0C91.3 0 45.7 0 22.8 0L0 0Z" fill="#fa7268"></path><path d="M0 241L22.8 248.3C45.7 255.7 91.3 270.3 137 264.8C182.7 259.3 228.3 233.7 274 221.2C319.7 208.7 365.3 209.3 411.2 204.7C457 200 503 190 548.8 201.3C594.7 212.7 640.3 245.3 686 248.3C731.7 251.3 777.3 224.7 823 209C868.7 193.3 914.3 188.7 937.2 186.3L960 184L960 0L937.2 0C914.3 0 868.7 0 823 0C777.3 0 731.7 0 686 0C640.3 0 594.7 0 548.8 0C503 0 457 0 411.2 0C365.3 0 319.7 0 274 0C228.3 0 182.7 0 137 0C91.3 0 45.7 0 22.8 0L0 0Z" fill="#ef5f67"></path><path d="M0 132L22.8 133C45.7 134 91.3 136 137 138C182.7 140 228.3 142 274 146.8C319.7 151.7 365.3 159.3 411.2 167C457 174.7 503 182.3 548.8 183.3C594.7 184.3 640.3 178.7 686 172.8C731.7 167 777.3 161 823 157C868.7 153 914.3 151 937.2 150L960 149L960 0L937.2 0C914.3 0 868.7 0 823 0C777.3 0 731.7 0 686 0C640.3 0 594.7 0 548.8 0C503 0 457 0 411.2 0C365.3 0 319.7 0 274 0C228.3 0 182.7 0 137 0C91.3 0 45.7 0 22.8 0L0 0Z" fill="#e34c67"></path><path d="M0 167L22.8 161.2C45.7 155.3 91.3 143.7 137 136C182.7 128.3 228.3 124.7 274 121.7C319.7 118.7 365.3 116.3 411.2 109.7C457 103 503 92 548.8 90.3C594.7 88.7 640.3 96.3 686 99.3C731.7 102.3 777.3 100.7 823 101.2C868.7 101.7 914.3 104.3 937.2 105.7L960 107L960 0L937.2 0C914.3 0 868.7 0 823 0C777.3 0 731.7 0 686 0C640.3 0 594.7 0 548.8 0C503 0 457 0 411.2 0C365.3 0 319.7 0 274 0C228.3 0 182.7 0 137 0C91.3 0 45.7 0 22.8 0L0 0Z" fill="#d53867"></path><path d="M0 93L22.8 91.7C45.7 90.3 91.3 87.7 137 80.2C182.7 72.7 228.3 60.3 274 61.7C319.7 63 365.3 78 411.2 77.8C457 77.7 503 62.3 548.8 64C594.7 65.7 640.3 84.3 686 82.8C731.7 81.3 777.3 59.7 823 50.7C868.7 41.7 914.3 45.3 937.2 47.2L960 49L960 0L937.2 0C914.3 0 868.7 0 823 0C777.3 0 731.7 0 686 0C640.3 0 594.7 0 548.8 0C503 0 457 0 411.2 0C365.3 0 319.7 0 274 0C228.3 0 182.7 0 137 0C91.3 0 45.7 0 22.8 0L0 0Z" fill="#c62368"></path></svg>