<svg id="visual" viewBox="0 0 960 540" width="960" height="540" xmlns="http://www.w3.org/2000/svg" xmlns:xlink="http://www.w3.org/1999/xlink" version="1.1"><rect x="0" y="0" width="960" height="540" fill="#001220"></rect><path d="M0 267L22.8 261.3C45.7 255.7 91.3 244.3 137 233.2C182.7 222 228.3 211 274 218.5C319.7 226 365.3 252 411.2 255.5C457 259 503 240 548.8 227.3C594.7 214.7 640.3 208.3 686 212.3C731.7 216.3 777.3 230.7 823 230.8C868.7 231 914.3 217 937.2 210L960 203L960 541L937.2 541C914.3 541 868.7 541 823 541C777.3 541 731.7 541 686 541C640.3 541 594.7 541 548.8 541C503 541 457 541 411.2 541C365.3 541 319.7 541 274 541C228.3 541 182.7 541 137 541C91.3 541 45.7 541 22.8 541L0 541Z" fill="#fa7268"></path><path d="M0 318L22.8 309.5C45.7 301 91.3 284 137 278.8C182.7 273.7 228.3 280.3 274 296.2C319.7 312 365.3 337 411.2 331C457 325 503 288 548.8 279.8C594.7 271.7 640.3 292.3 686 302C731.7 311.7 777.3 310.3 823 316.8C868.7 323.3 914.3 337.7 937.2 344.8L960 352L960 541L937.2 541C914.3 541 868.7 541 823 541C777.3 541 731.7 541 686 541C640.3 541 594.7 541 548.8 541C503 541 457 541 411.2 541C365.3 541 319.7 541 274 541C228.3 541 182.7 541 137 541C91.3 541 45.7 541 22.8 541L0 541Z" fill="#ef5f67"></path><path d="M0 375L22.8 368.3C45.7 361.7 91.3 348.3 137 337.7C182.7 327 228.3 319 274 318.2C319.7 317.3 365.3 323.7 411.2 335.2C457 346.7 503 363.3 548.8 371C594.7 378.7 640.3 377.3 686 374C731.7 370.7 777.3 365.3 823 358.2C868.7 351 914.3 342 937.2 337.5L960 333L960 541L937.2 541C914.3 541 868.7 541 823 541C777.3 541 731.7 541 686 541C640.3 541 594.7 541 548.8 541C503 541 457 541 411.2 541C365.3 541 319.7 541 274 541C228.3 541 182.7 541 137 541C91.3 541 45.7 541 22.8 541L0 541Z" fill="#e34c67"></path><path d="M0 442L22.8 436.8C45.7 431.7 91.3 421.3 137 418.3C182.7 415.3 228.3 419.7 274 426.8C319.7 434 365.3 444 411.2 441.5C457 439 503 424 548.8 418.8C594.7 413.7 640.3 418.3 686 421.2C731.7 424 777.3 425 823 427C868.7 429 914.3 432 937.2 433.5L960 435L960 541L937.2 541C914.3 541 868.7 541 823 541C777.3 541 731.7 541 686 541C640.3 541 594.7 541 548.8 541C503 541 457 541 411.2 541C365.3 541 319.7 541 274 541C228.3 541 182.7 541 137 541C91.3 541 45.7 541 22.8 541L0 541Z" fill="#d53867"></path><path d="M0 460L22.8 464.7C45.7 469.3 91.3 478.7 137 481.2C182.7 483.7 228.3 479.3 274 476C319.7 472.7 365.3 470.3 411.2 470.7C457 471 503 474 548.8 478.5C594.7 483 640.3 489 686 490C731.7 491 777.3 487 823 477.3C868.7 467.7 914.3 452.3 937.2 444.7L960 437L960 541L937.2 541C914.3 541 868.7 541 823 541C777.3 541 731.7 541 686 541C640.3 541 594.7 541 548.8 541C503 541 457 541 411.2 541C365.3 541 319.7 541 274 541C228.3 541 182.7 541 137 541C91.3 541 45.7 541 22.8 541L0 541Z" fill="#c62368"></path></svg>